<svg width="280" height="280" viewBox="0 0 280 280" fill="none" xmlns="http://www.w3.org/2000/svg">
<rect width="280" height="280" fill="#E5E5E5"/>
<path d="M264.938 65.4553C264.929 65.3836 264.917 65.3129 264.906 65.2421C264.865 64.9786 264.811 64.7197 264.741 64.4664C264.731 64.4273 264.723 64.3891 264.712 64.35C264.625 64.0576 264.521 63.7726 264.398 63.497C264.378 63.4504 264.354 63.4057 264.333 63.3591C264.222 63.1208 264.098 62.8898 263.962 62.6673C263.936 62.6226 263.91 62.5769 263.882 62.5332C263.723 62.2855 263.55 62.0489 263.362 61.8245C263.325 61.7807 263.285 61.7398 263.247 61.696C263.081 61.5088 262.907 61.3309 262.723 61.1624C262.676 61.1196 262.631 61.0749 262.584 61.0339C262.361 60.8402 262.125 60.6605 261.879 60.4966C261.841 60.4714 261.801 60.4491 261.763 60.4249C261.528 60.2759 261.285 60.1418 261.033 60.0216C261.008 60.0095 260.985 59.9928 260.959 59.9807L142.846 5.62508C141.037 4.79164 138.961 4.79164 137.152 5.62508L55.5412 43.1842C52.0769 44.7784 57.1356 49.5 60 55.9028C61.5714 59.4154 57.772 57.5017 61.2353 55.9028L140 19.654L241.223 66.2385L140 111.344L24.6579 59.9481C24.6497 59.9444 24.6414 59.9425 24.6332 59.9388C24.4642 59.8643 24.2897 59.8 24.1143 59.7385C24.0702 59.7227 24.0261 59.7041 23.982 59.6892C23.8378 59.6426 23.689 59.6063 23.5412 59.5691C23.4631 59.5495 23.385 59.5253 23.3061 59.5085C23.2115 59.4881 23.1141 59.4769 23.0177 59.4601C22.8836 59.4378 22.7495 59.4126 22.6154 59.3977C22.553 59.3912 22.4878 59.3903 22.4244 59.3856C22.2563 59.3726 22.0892 59.3614 21.922 59.3605C21.9101 59.3605 21.8991 59.3586 21.8871 59.3586C21.8219 59.3586 21.7585 59.367 21.6943 59.3689C21.5455 59.3726 21.3967 59.3772 21.2497 59.3912C21.1349 59.4014 21.0229 59.4201 20.9099 59.4368C20.8062 59.4527 20.7015 59.4648 20.5995 59.4853C20.459 59.5123 20.3222 59.5476 20.1844 59.5821C20.11 59.6017 20.0356 59.6184 19.9621 59.6408C19.8134 59.6845 19.6683 59.7367 19.5241 59.7898C19.4616 59.8121 19.3992 59.8335 19.3376 59.8587C19.1953 59.9164 19.0566 59.9807 18.9188 60.0477C18.8555 60.0794 18.7903 60.1082 18.7278 60.1418C18.6029 60.207 18.4808 60.2787 18.3604 60.3522C18.2861 60.3969 18.2117 60.4407 18.14 60.4882C18.0362 60.5562 17.9361 60.6297 17.836 60.7033C17.7525 60.7648 17.6689 60.8262 17.5881 60.8914C17.5036 60.9603 17.4218 61.033 17.341 61.1056C17.2528 61.1838 17.1656 61.2611 17.082 61.344C17.0095 61.4157 16.9406 61.492 16.8717 61.5665C16.7891 61.6559 16.7064 61.7444 16.6274 61.8385C16.5576 61.9223 16.4924 62.0117 16.4254 62.0992C16.3574 62.1886 16.2894 62.2761 16.2252 62.3702C16.1489 62.4819 16.08 62.5983 16.0102 62.7147C15.9652 62.7902 15.9175 62.8637 15.8743 62.941C15.7917 63.0919 15.7182 63.2474 15.6456 63.4039C15.6254 63.4485 15.6006 63.4886 15.5814 63.5342C15.5777 63.5426 15.5758 63.5519 15.5722 63.5594C15.4987 63.7307 15.4353 63.9067 15.3756 64.0836C15.36 64.1293 15.3407 64.174 15.326 64.2196C15.281 64.3639 15.2452 64.5129 15.2094 64.661C15.1892 64.743 15.1644 64.824 15.1469 64.9068C15.1277 64.9981 15.1176 65.0912 15.1019 65.1834C15.0781 65.325 15.0523 65.4665 15.0377 65.609C15.0321 65.6649 15.0321 65.7207 15.0276 65.7766C15.0129 65.9554 15.0018 66.1351 15.0009 66.3139C15.0009 66.3242 15 66.3335 15 66.3447V202.701C15 205.425 16.5613 207.9 18.9997 209.042L137.112 264.355C137.112 264.355 137.129 264.36 137.136 264.365C137.186 264.387 137.238 264.404 137.288 264.425C137.518 264.525 137.749 264.613 137.983 264.685C138.064 264.71 138.147 264.732 138.231 264.754C138.454 264.815 138.677 264.863 138.901 264.9C138.97 264.912 139.039 264.926 139.109 264.935C139.404 264.974 139.701 265 139.996 265C140.025 265 140.054 264.994 140.083 264.993C140.343 264.991 140.603 264.971 140.862 264.938C140.957 264.926 141.051 264.907 141.145 264.891C141.346 264.857 141.546 264.814 141.745 264.761C141.837 264.736 141.928 264.712 142.019 264.683C142.239 264.615 142.454 264.534 142.668 264.443C142.727 264.418 142.788 264.398 142.847 264.371C142.86 264.364 142.875 264.36 142.888 264.354L261 209.041C263.439 207.899 265 205.424 265 202.7V66.3419C265 66.0411 264.975 65.7459 264.938 65.4553ZM146.888 247.093V156.324C150.693 156.324 146.888 152.466 146.888 156.324C146.888 160.182 133.112 154.642 133.112 158.5V247.093L28.7752 198.232V77.0398L137.229 125.367C138.112 125.761 139.055 125.957 140 125.957C140.946 125.957 141.889 125.761 142.772 125.367L251.224 77.0398V198.231L146.888 247.093Z" fill="#222220"/>
</svg>
